<?xml version="1.0" standalone="no"?><!DOCTYPE svg PUBLIC "-//W3C//DTD SVG 1.1//EN" "http://www.w3.org/Graphics/SVG/1.1/DTD/svg11.dtd"><svg t="1706750650327" class="icon" viewBox="0 0 1024 1024" version="1.1" xmlns="http://www.w3.org/2000/svg" p-id="6441" xmlns:xlink="http://www.w3.org/1999/xlink" width="200" height="200"><path d="M512 149.333333c-165.482667 0-298.666667 132.245333-298.666667 294.186667 0 94.336 45.077333 178.474667 115.605334 232.448 46.272 35.413333 89.194667 91.050667 89.194666 160.554667V896h187.733334v-59.477333c0-69.504 42.922667-125.141333 89.194666-160.554667C765.589333 621.994667 810.666667 537.856 810.666667 443.52 810.666667 281.557333 677.482667 149.333333 512 149.333333zM128 443.52C128 233.386667 300.458667 64 512 64s384 169.386667 384 379.52c0 122.304-58.56 230.954667-149.077333 300.202667-34.88 26.709333-55.722667 60.096-55.722667 92.8v102.122666a42.666667 42.666667 0 0 1-42.666667 42.688H375.466667a42.666667 42.666667 0 0 1-42.666667-42.666666v-102.144c0-32.704-20.842667-66.090667-55.722667-92.8C186.56 674.474667 128 565.802667 128 443.52z" fill="#1296db" p-id="6442"></path><path d="M362.666667 768h298.666666v85.333333H362.666667v-85.333333z" fill="#1296db" p-id="6443"></path><path d="M554.666667 234.666667v64h64v85.333333h-138.666667a10.666667 10.666667 0 0 0 0 21.333333h64a96 96 0 0 1 10.666667 191.424V661.333333h-85.333334v-64h-64v-85.333333h138.666667a10.666667 10.666667 0 1 0 0-21.333333h-64a96 96 0 0 1-10.666667-191.424V234.666667h85.333334z" fill="#1296db" p-id="6444"></path></svg>